<svg xmlns="http://www.w3.org/2000/svg" width="1140" height="100" fill="none" viewBox="0 0 1140 100">
  <g clip-path="url(#a)">
    <path fill="#0266FF" d="M32.792 50.628H1.735A1.74 1.74 0 0 1 0 48.893V23.735C0 22.781.78 22 1.735 22h31.057a9.515 9.515 0 0 1 9.542 9.543V52.71c0 .78-.867 1.214-1.474.694-2.256-1.735-5.032-2.776-8.068-2.776Z"/>
    <path fill="#1B38C9" d="M32.445 57.655H1.735A1.74 1.74 0 0 1 0 55.92c0-.955.78-1.735 1.735-1.735h30.71c5.031 0 9.456 3.817 9.803 8.848.347 5.552-3.99 10.15-9.456 10.15H1.735A1.74 1.74 0 0 1 0 71.448c0-.954.78-1.735 1.735-1.735h30.97c3.47 0 6.333-3.036 5.986-6.593-.26-3.123-3.036-5.465-6.246-5.465Z"/>
    <path fill="#0266FF" d="M33.138 65.983h-21.86a.87.87 0 0 1-.868-.868v-.607a.87.87 0 0 1 .867-.867h21.775a.87.87 0 0 1 .867.867v.607c0 .52-.347.868-.78.868Z"/>
    <path fill="#E1AD19" d="M27.934 75.959c0 .78-.868 1.301-1.562.867a6.27 6.27 0 0 0-3.036-.78c-1.301 0-2.342.347-3.123.78-.694.347-1.562-.086-1.562-.867V61.905h9.196V75.96h.087Z"/>
    <path fill="#0266FF" d="M28.454 62.253h-10.15a.87.87 0 0 1-.867-.867v-.607a.87.87 0 0 1 .867-.868h10.064a.87.87 0 0 1 .867.868v.607c0 .434-.347.867-.78.867Z"/>
  </g>
  <path fill="#000" d="M86.371 50.877H79.85v-4.113h6.521c1.008 0 1.828-.164 2.461-.492.633-.34 1.096-.81 1.389-1.407.293-.597.44-1.271.44-2.021 0-.762-.147-1.471-.44-2.127a3.55 3.55 0 0 0-1.389-1.582c-.633-.399-1.453-.598-2.46-.598h-4.694V60h-5.274V34.406h9.967c2.004 0 3.72.364 5.15 1.09 1.442.715 2.543 1.705 3.305 2.97.762 1.266 1.143 2.714 1.143 4.343 0 1.652-.381 3.082-1.143 4.289-.761 1.207-1.863 2.138-3.304 2.795-1.43.656-3.147.984-5.15.984Zm26.561 2.426a3.4 3.4 0 0 0-.211-1.23c-.129-.376-.375-.716-.739-1.02-.363-.317-.873-.627-1.529-.932-.656-.305-1.506-.621-2.549-.95a32.252 32.252 0 0 1-3.304-1.265 13.565 13.565 0 0 1-2.743-1.634 7.366 7.366 0 0 1-1.863-2.198c-.445-.832-.668-1.799-.668-2.9 0-1.067.235-2.033.703-2.9a6.676 6.676 0 0 1 1.969-2.25c.844-.633 1.84-1.12 2.988-1.46 1.16-.34 2.432-.51 3.815-.51 1.887 0 3.533.34 4.939 1.02 1.406.68 2.496 1.611 3.27 2.795.785 1.184 1.178 2.537 1.178 4.06h-5.239c0-.75-.158-1.406-.474-1.968-.305-.574-.774-1.026-1.407-1.354-.621-.328-1.406-.492-2.355-.492-.914 0-1.676.14-2.285.422-.61.27-1.067.639-1.371 1.108a2.724 2.724 0 0 0-.457 1.546c0 .434.105.827.316 1.178.223.352.551.68.984.984a8.78 8.78 0 0 0 1.6.862c.633.27 1.365.533 2.197.79 1.395.423 2.619.897 3.674 1.425 1.067.527 1.957 1.119 2.672 1.775a6.595 6.595 0 0 1 1.617 2.233c.363.831.545 1.775.545 2.83 0 1.113-.217 2.109-.65 2.988a6.146 6.146 0 0 1-1.881 2.232c-.82.61-1.799 1.072-2.936 1.389-1.136.316-2.408.475-3.814.475-1.266 0-2.514-.164-3.744-.493-1.231-.34-2.35-.85-3.358-1.529a7.706 7.706 0 0 1-2.39-2.602c-.598-1.054-.897-2.302-.897-3.744h5.291c0 .797.123 1.471.369 2.022.246.55.592.996 1.037 1.336.457.34.997.586 1.618.738a8.852 8.852 0 0 0 2.074.229c.914 0 1.664-.13 2.25-.387.597-.258 1.037-.615 1.318-1.072.293-.457.44-.973.44-1.547Zm19.265-14.52L125.236 60h-5.607l9.51-25.594h3.568l-.51 4.377ZM137.98 60l-6.978-21.217-.563-4.377h3.604L143.605 60h-5.625Zm-.316-9.527v4.13h-13.518v-4.13h13.518Zm18.721-11.69L149.424 60h-5.608l9.51-25.594h3.569l-.51 4.377ZM162.168 60l-6.979-21.217-.562-4.377h3.603L167.793 60h-5.625Zm-.316-9.527v4.13h-13.518v-4.13h13.518Z"/>
  <defs>
    <clipPath id="a">
      <path fill="#fff" d="M0 0h42.248v55H0z" transform="translate(0 22)"/>
    </clipPath>
  </defs>
</svg>
